<svg xmlns="http://www.w3.org/2000/svg" xmlns:xlink="http://www.w3.org/1999/xlink" contentStyleType="text/css" height="509px" preserveAspectRatio="none" style="width:971px;height:509px;background:#FFFFFF;" version="1.1" viewBox="0 0 971 509" width="971px" zoomAndPan="magnify"><defs/><g><!--cluster Client--><g id="cluster_Client"><path d="M668.5,147.0137 L708.3896,147.0137 A3.75,3.75 0 0 1 710.8896,149.5137 L717.8896,171.6348 L771.5,171.6348 A2.5,2.5 0 0 1 774,174.1348 L774,236.5137 A2.5,2.5 0 0 1 771.5,239.0137 L668.5,239.0137 A2.5,2.5 0 0 1 666,236.5137 L666,149.5137 A2.5,2.5 0 0 1 668.5,147.0137 " fill="none" style="stroke:#000000;stroke-width:1.5;"/><line style="stroke:#000000;stroke-width:1.5;" x1="666" x2="717.8896" y1="171.6348" y2="171.6348"/><text fill="#000000" font-family="sans-serif" font-size="14" font-weight="bold" lengthAdjust="spacing" textLength="38.8896" x="670" y="164.1211">Client</text></g><!--cluster Server--><g id="cluster_Server"><path d="M92.5,6.0137 L137.0928,6.0137 A3.75,3.75 0 0 1 139.5928,8.5137 L146.5928,30.6348 L639.5,30.6348 A2.5,2.5 0 0 1 642,33.1348 L642,356.5137 A2.5,2.5 0 0 1 639.5,359.0137 L92.5,359.0137 A2.5,2.5 0 0 1 90,356.5137 L90,8.5137 A2.5,2.5 0 0 1 92.5,6.0137 " fill="none" style="stroke:#000000;stroke-width:1.5;"/><line style="stroke:#000000;stroke-width:1.5;" x1="90" x2="146.5928" y1="30.6348" y2="30.6348"/><text fill="#000000" font-family="sans-serif" font-size="14" font-weight="bold" lengthAdjust="spacing" textLength="43.5928" x="94" y="23.1211">Server</text></g><!--cluster Monitoring Tools--><g id="cluster_Monitoring Tools"><path d="M8.5,410.0137 L123.0313,410.0137 A3.75,3.75 0 0 1 125.5313,412.5137 L132.5313,434.6348 L201.5,434.6348 A2.5,2.5 0 0 1 204,437.1348 L204,499.5137 A2.5,2.5 0 0 1 201.5,502.0137 L8.5,502.0137 A2.5,2.5 0 0 1 6,499.5137 L6,412.5137 A2.5,2.5 0 0 1 8.5,410.0137 " fill="none" style="stroke:#000000;stroke-width:1.5;"/><line style="stroke:#000000;stroke-width:1.5;" x1="6" x2="132.5313" y1="434.6348" y2="434.6348"/><text fill="#000000" font-family="sans-serif" font-size="14" font-weight="bold" lengthAdjust="spacing" textLength="113.5313" x="10" y="427.1211">Monitoring Tools</text></g><!--entity Frontend--><g id="elem_Frontend"><rect fill="#F1F1F1" height="38.6211" rx="2.5" ry="2.5" style="stroke:#181818;stroke-width:0.5;" width="76.0342" x="682" y="184.0137"/><text fill="#000000" font-family="sans-serif" font-size="14" lengthAdjust="spacing" textLength="56.0342" x="692" y="209.1211">Frontend</text></g><!--entity Backend--><g id="elem_Backend"><rect fill="#F1F1F1" height="38.6211" rx="2.5" ry="2.5" style="stroke:#181818;stroke-width:0.5;" width="74.4824" x="304" y="184.0137"/><text fill="#000000" font-family="sans-serif" font-size="14" lengthAdjust="spacing" textLength="54.4824" x="314" y="209.1211">Backend</text></g><!--entity WebSocket Service--><g id="elem_WebSocket Service"><rect fill="#F1F1F1" height="38.6211" rx="2.5" ry="2.5" style="stroke:#181818;stroke-width:0.5;" width="142.1582" x="462" y="304.0137"/><text fill="#000000" font-family="sans-serif" font-size="14" lengthAdjust="spacing" textLength="122.1582" x="472" y="329.1211">WebSocket Service</text></g><!--entity Cache (Redis)--><g id="elem_Cache (Redis)"><rect fill="#F1F1F1" height="38.6211" rx="2.5" ry="2.5" style="stroke:#181818;stroke-width:0.5;" width="109.4756" x="199.5" y="304.0137"/><text fill="#000000" font-family="sans-serif" font-size="14" lengthAdjust="spacing" textLength="89.4756" x="209.5" y="329.1211">Cache (Redis)</text></g><!--entity Database--><g id="elem_Database"><rect fill="#F1F1F1" height="38.6211" rx="2.5" ry="2.5" style="stroke:#181818;stroke-width:0.5;" width="79.9307" x="344" y="304.0137"/><text fill="#000000" font-family="sans-serif" font-size="14" lengthAdjust="spacing" textLength="59.9307" x="354" y="329.1211">Database</text></g><!--entity API Gateway--><g id="elem_API Gateway"><rect fill="#F1F1F1" height="38.6211" rx="2.5" ry="2.5" style="stroke:#181818;stroke-width:0.5;" width="101.7031" x="460" y="43.0137"/><text fill="#000000" font-family="sans-serif" font-size="14" lengthAdjust="spacing" textLength="81.7031" x="470" y="68.1211">API Gateway</text></g><!--entity Monitoring and Logging--><g id="elem_Monitoring and Logging"><rect fill="#F1F1F1" height="38.6211" rx="2.5" ry="2.5" style="stroke:#181818;stroke-width:0.5;" width="166.3301" x="22" y="447.0137"/><text fill="#000000" font-family="sans-serif" font-size="14" lengthAdjust="spacing" textLength="146.3301" x="32" y="472.1211">Monitoring and Logging</text></g><!--link Frontend to API Gateway--><g id="link_Frontend_API Gateway"><path d="M698.87,183.7537 C683.57,170.5737 662.13,152.8837 642,139.0137 C610.98,117.6537 578.8548,99.3546 551.9748,84.9046 " fill="none" id="Frontend-to-API Gateway" style="stroke:#181818;stroke-width:1.0;"/><polygon fill="#181818" points="546.69,82.0637,552.7232,89.8483,551.094,84.4311,556.5111,82.8019,546.69,82.0637" style="stroke:#181818;stroke-width:1.0;"/><text fill="#000000" font-family="sans-serif" font-size="13" lengthAdjust="spacing" textLength="91.7427" x="629" y="127.042">REST API Calls</text></g><!--link Frontend to WebSocket Service--><g id="link_Frontend_WebSocket Service"><path d="M697.44,223.0337 C679.05,237.7137 652.12,258.2937 627,274.0137 C609.72,284.8237 595.1235,292.7143 578.0535,301.1943 " fill="none" id="Frontend-to-WebSocket Service" style="stroke:#181818;stroke-width:1.0;"/><polygon fill="#181818" points="572.68,303.8637,582.5198,303.4419,577.1579,301.6392,578.9606,296.2772,572.68,303.8637" style="stroke:#181818;stroke-width:1.0;"/><text fill="#000000" font-family="sans-serif" font-size="13" lengthAdjust="spacing" textLength="135.8525" x="654" y="270.042">WebSocket Connection</text></g><!--link WebSocket Service to Frontend--><g id="link_WebSocket Service_Frontend"><path d="M604.14,319.4737 C674.07,314.8037 773.74,303.1137 798,274.0137 C815.42,253.1137 791.0646,235.4286 763.4146,222.2286 " fill="none" id="WebSocket Service-to-Frontend" style="stroke:#181818;stroke-width:1.0;"/><polygon fill="#181818" points="758,219.6437,764.3987,227.1308,762.5122,221.7978,767.8452,219.9113,758,219.6437" style="stroke:#181818;stroke-width:1.0;"/><text fill="#000000" font-family="sans-serif" font-size="13" lengthAdjust="spacing" textLength="159.0024" x="804" y="270.042">Push Leaderboard Updates</text></g><!--link API Gateway to Backend--><g id="link_API Gateway_Backend"><path d="M488.07,82.2637 C455.54,108.8637 400.9653,153.4862 368.4753,180.0462 " fill="none" id="API Gateway-to-Backend" style="stroke:#181818;stroke-width:1.0;"/><polygon fill="#181818" points="363.83,183.8437,373.3297,181.2443,367.7011,180.6791,368.2664,175.0506,363.83,183.8437" style="stroke:#181818;stroke-width:1.0;"/><text fill="#000000" font-family="sans-serif" font-size="13" lengthAdjust="spacing" textLength="124.2871" x="453" y="127.042">Routes API Requests</text></g><!--link Backend to Cache (Redis)--><g id="link_Backend_Cache (Redis)"><path d="M303.73,209.9737 C257.44,217.6037 182.54,233.0237 166,255.0137 C151.01,274.9437 168.2569,289.4809 194.3369,301.4509 " fill="none" id="Backend-to-Cache (Redis)" style="stroke:#181818;stroke-width:1.0;"/><polygon fill="#181818" points="199.79,303.9537,193.2789,296.5641,195.2458,301.868,189.9419,303.8348,199.79,303.9537" style="stroke:#181818;stroke-width:1.0;"/><text fill="#000000" font-family="sans-serif" font-size="13" lengthAdjust="spacing" textLength="158.2471" x="167" y="270.042">Fast Session Data Updates</text></g><!--link Backend to Database--><g id="link_Backend_Database"><path d="M336.14,223.2037 C333.34,237.6137 331.51,257.7437 338,274.0137 C342.56,285.4437 346.8698,291.602 355.4598,299.722 " fill="none" id="Backend-to-Database" style="stroke:#181818;stroke-width:1.0;"/><polygon fill="#181818" points="359.82,303.8437,356.0274,294.7543,356.1865,300.4089,350.5318,300.568,359.82,303.8437" style="stroke:#181818;stroke-width:1.0;"/><text fill="#000000" font-family="sans-serif" font-size="13" lengthAdjust="spacing" textLength="130.0571" x="339" y="270.042">Stores Persistent Data</text></g><!--link Backend to WebSocket Service--><g id="link_Backend_WebSocket Service"><path d="M378.04,213.3137 C406.1,221.1737 444.7,234.6337 474,255.0137 C493.04,268.2537 506.3975,284.0821 517.1675,299.0621 " fill="none" id="Backend-to-WebSocket Service" style="stroke:#181818;stroke-width:1.0;"/><polygon fill="#181818" points="520.67,303.9337,518.664,294.2913,517.7513,299.874,512.1685,298.9612,520.67,303.9337" style="stroke:#181818;stroke-width:1.0;"/><text fill="#000000" font-family="sans-serif" font-size="13" lengthAdjust="spacing" textLength="111.9854" x="496" y="270.042">Real-Time Updates</text></g><!--link Backend to Monitoring and Logging--><g id="link_Backend_Monitoring and Logging"><path d="M303.88,204.9537 C242.91,208.0037 124.12,224.3937 82,304.0137 C57.23,350.8237 78.3959,409.9804 92.9659,441.4004 " fill="none" id="Backend-to-Monitoring and Logging" style="stroke:#181818;stroke-width:1.0;"/><polygon fill="#181818" points="95.49,446.8437,95.3326,436.9961,93.3866,442.3076,88.075,440.3616,95.49,446.8437" style="stroke:#181818;stroke-width:1.0;"/><text fill="#000000" font-family="sans-serif" font-size="13" lengthAdjust="spacing" textLength="98.9917" x="83" y="329.042">Logs and Metrics</text></g><!--link WebSocket Service to Monitoring and Logging--><g id="link_WebSocket Service_Monitoring and Logging"><path d="M495.93,343.1537 C479.37,351.0937 459.45,360.0937 441,367.0137 C352.93,400.0637 254.3578,427.6373 185.5778,445.4773 " fill="none" id="WebSocket Service-to-Monitoring and Logging" style="stroke:#181818;stroke-width:1.0;"/><polygon fill="#181818" points="179.77,446.9837,189.486,448.5959,184.6098,445.7283,187.4774,440.8522,179.77,446.9837" style="stroke:#181818;stroke-width:1.0;"/><text fill="#000000" font-family="sans-serif" font-size="13" lengthAdjust="spacing" textLength="28.1899" x="416" y="390.042">Logs</text></g><!--SRC=[VL7BJiD03BpdAwoUuD0Vw0490aL8hHGbGHmG1pUnqbMtwx3UWYh4l-CifMdeu-QCv-6ToCgu5ZskeU9rouvSACBM4dYg0hh6KfAqMAsm8HYbrkX-15y9mElKimlawhVa-u1IaFyWlwFSAHePEh_Gec3z3D1HJ4KHJR5Q4bpbL1kvZiWz1boW_AvlioTun42Vk1t6pDcPmDwu1afcAxl00nXT3JDk6fsZjByNnkEReJLC87yeIkYm5AsL8_RnzQhfmPITqxuCksHe7CL_DNGnl0aaCIYdzmr9qApzFhA7bQXcYjB5YgWzTFN0Srjhm95oNvsA2gr1WpBoOaGV4gBol-Bait92EoxDclgS4xoexrkQGBQH9Sm8Q_8BHb-Vk_BCFr877ILYSmhUL1ToBtiaFm00]--></g></svg>