<svg xmlns="http://www.w3.org/2000/svg" xmlns:xlink="http://www.w3.org/1999/xlink" contentStyleType="text/css" height="900px" preserveAspectRatio="none" style="width:474px;height:900px;background:#F9F9F9;" version="1.1" viewBox="0 0 474 900" width="474px" zoomAndPan="magnify"><defs/><g><rect fill="#F9F9F9" height="900" style="stroke:none;stroke-width:1.0;" width="474" x="0" y="0"/><ellipse cx="239.5977" cy="20" fill="#222222" rx="10" ry="10" style="stroke:#222222;stroke-width:1.0;"/><rect fill="#F1F1F1" height="35.9609" rx="12.5" ry="12.5" style="stroke:#181818;stroke-width:0.5;" width="125.3633" x="176.916" y="50"/><text fill="#000000" font-family="sans-serif" font-size="12" lengthAdjust="spacing" textLength="105.3633" x="186.916" y="72.9492">User enters Quiz ID</text><rect fill="#F1F1F1" height="35.9609" rx="12.5" ry="12.5" style="stroke:#181818;stroke-width:0.5;" width="164.7324" x="157.2314" y="105.9609"/><text fill="#000000" font-family="sans-serif" font-size="12" lengthAdjust="spacing" textLength="144.7324" x="167.2314" y="128.9102">Validate Quiz ID (Backend)</text><polygon fill="#F1F1F1" points="205.3623,161.9219,273.833,161.9219,285.833,173.9219,273.833,185.9219,205.3623,185.9219,193.3623,173.9219,205.3623,161.9219" style="stroke:#181818;stroke-width:0.5;"/><text fill="#000000" font-family="sans-serif" font-size="11" lengthAdjust="spacing" textLength="68.4707" x="205.3623" y="178.4766">Quiz ID valid?</text><text fill="#000000" font-family="sans-serif" font-size="11" lengthAdjust="spacing" textLength="18.9546" x="174.4077" y="171.1611">Yes</text><text fill="#000000" font-family="sans-serif" font-size="11" lengthAdjust="spacing" textLength="14.0615" x="285.833" y="171.1611">No</text><rect fill="#F1F1F1" height="35.9609" rx="12.5" ry="12.5" style="stroke:#181818;stroke-width:0.5;" width="160.0801" x="41.3428" y="195.9219"/><text fill="#000000" font-family="sans-serif" font-size="12" lengthAdjust="spacing" textLength="140.0801" x="51.3428" y="218.8711">Store session in Database</text><rect fill="#F1F1F1" height="35.9609" rx="12.5" ry="12.5" style="stroke:#181818;stroke-width:0.5;" width="125.3984" x="58.6836" y="251.8828"/><text fill="#000000" font-family="sans-serif" font-size="12" lengthAdjust="spacing" textLength="105.3984" x="68.6836" y="274.832">Cache session data</text><rect fill="#F1F1F1" height="35.9609" rx="12.5" ry="12.5" style="stroke:#181818;stroke-width:0.5;" width="220.7656" x="11" y="307.8438"/><text fill="#000000" font-family="sans-serif" font-size="12" lengthAdjust="spacing" textLength="200.7656" x="21" y="330.793">Response to Frontend (Join Success)</text><rect fill="#F1F1F1" height="35.9609" rx="12.5" ry="12.5" style="stroke:#181818;stroke-width:0.5;" width="212.0938" x="251.7656" y="195.9219"/><text fill="#000000" font-family="sans-serif" font-size="12" lengthAdjust="spacing" textLength="192.0938" x="261.7656" y="218.8711">Response to Frontend (Join Failure)</text><ellipse cx="357.8125" cy="262.8828" fill="none" rx="11" ry="11" style="stroke:#222222;stroke-width:1.0;"/><ellipse cx="357.8125" cy="262.8828" fill="#222222" rx="6" ry="6" style="stroke:#222222;stroke-width:1.0;"/><rect fill="#F1F1F1" height="35.9609" rx="12.5" ry="12.5" style="stroke:#181818;stroke-width:0.5;" width="132.0313" x="173.582" y="363.8047"/><text fill="#000000" font-family="sans-serif" font-size="12" lengthAdjust="spacing" textLength="112.0313" x="183.582" y="386.7539">User submits answer</text><rect fill="#F1F1F1" height="35.9609" rx="12.5" ry="12.5" style="stroke:#181818;stroke-width:0.5;" width="163.4082" x="157.8936" y="419.7656"/><text fill="#000000" font-family="sans-serif" font-size="12" lengthAdjust="spacing" textLength="143.4082" x="167.8936" y="442.7148">Validate answer (Backend)</text><rect fill="#F1F1F1" height="35.9609" rx="12.5" ry="12.5" style="stroke:#181818;stroke-width:0.5;" width="158.75" x="160.2227" y="475.7266"/><text fill="#000000" font-family="sans-serif" font-size="12" lengthAdjust="spacing" textLength="138.75" x="170.2227" y="498.6758">Update score in Database</text><rect fill="#F1F1F1" height="35.9609" rx="12.5" ry="12.5" style="stroke:#181818;stroke-width:0.5;" width="142.0684" x="168.5635" y="531.6875"/><text fill="#000000" font-family="sans-serif" font-size="12" lengthAdjust="spacing" textLength="122.0684" x="178.5635" y="554.6367">Update score in Cache</text><rect fill="#F1F1F1" height="35.9609" rx="12.5" ry="12.5" style="stroke:#181818;stroke-width:0.5;" width="244.8125" x="117.1914" y="587.6484"/><text fill="#000000" font-family="sans-serif" font-size="12" lengthAdjust="spacing" textLength="224.8125" x="127.1914" y="610.5977">Push updated leaderboard via WebSocket</text><rect fill="#F1F1F1" height="35.9609" rx="12.5" ry="12.5" style="stroke:#181818;stroke-width:0.5;" width="154.0449" x="162.5752" y="643.6094"/><text fill="#000000" font-family="sans-serif" font-size="12" lengthAdjust="spacing" textLength="134.0449" x="172.5752" y="666.5586">Fetch scores from Cache</text><rect fill="#F1F1F1" height="35.9609" rx="12.5" ry="12.5" style="stroke:#181818;stroke-width:0.5;" width="138.7109" x="170.2422" y="699.5703"/><text fill="#000000" font-family="sans-serif" font-size="12" lengthAdjust="spacing" textLength="118.7109" x="180.2422" y="722.5195">Sort scores (Backend)</text><rect fill="#F1F1F1" height="35.9609" rx="12.5" ry="12.5" style="stroke:#181818;stroke-width:0.5;" width="230.1289" x="124.5332" y="755.5313"/><text fill="#000000" font-family="sans-serif" font-size="12" lengthAdjust="spacing" textLength="210.1289" x="134.5332" y="778.4805">Send sorted leaderboard to WebSocket</text><rect fill="#F1F1F1" height="35.9609" rx="12.5" ry="12.5" style="stroke:#181818;stroke-width:0.5;" width="229.4492" x="124.873" y="811.4922"/><text fill="#000000" font-family="sans-serif" font-size="12" lengthAdjust="spacing" textLength="209.4492" x="134.873" y="834.4414">Push real-time leaderboard to Frontend</text><ellipse cx="239.5977" cy="878.4531" fill="none" rx="11" ry="11" style="stroke:#222222;stroke-width:1.0;"/><ellipse cx="239.5977" cy="878.4531" fill="#222222" rx="6" ry="6" style="stroke:#222222;stroke-width:1.0;"/><line style="stroke:#000000;stroke-width:1.0;" x1="239.5977" x2="239.5977" y1="30" y2="50"/><polygon fill="#000000" points="235.5977,40,239.5977,50,243.5977,40,239.5977,44" style="stroke:#000000;stroke-width:1.0;"/><line style="stroke:#000000;stroke-width:1.0;" x1="239.5977" x2="239.5977" y1="85.9609" y2="105.9609"/><polygon fill="#000000" points="235.5977,95.9609,239.5977,105.9609,243.5977,95.9609,239.5977,99.9609" style="stroke:#000000;stroke-width:1.0;"/><line style="stroke:#000000;stroke-width:1.0;" x1="121.3828" x2="121.3828" y1="231.8828" y2="251.8828"/><polygon fill="#000000" points="117.3828,241.8828,121.3828,251.8828,125.3828,241.8828,121.3828,245.8828" style="stroke:#000000;stroke-width:1.0;"/><line style="stroke:#000000;stroke-width:1.0;" x1="121.3828" x2="121.3828" y1="287.8438" y2="307.8438"/><polygon fill="#000000" points="117.3828,297.8438,121.3828,307.8438,125.3828,297.8438,121.3828,301.8438" style="stroke:#000000;stroke-width:1.0;"/><line style="stroke:#000000;stroke-width:1.0;" x1="357.8125" x2="357.8125" y1="231.8828" y2="251.8828"/><polygon fill="#000000" points="353.8125,241.8828,357.8125,251.8828,361.8125,241.8828,357.8125,245.8828" style="stroke:#000000;stroke-width:1.0;"/><line style="stroke:#000000;stroke-width:1.0;" x1="193.3623" x2="121.3828" y1="173.9219" y2="173.9219"/><line style="stroke:#000000;stroke-width:1.0;" x1="121.3828" x2="121.3828" y1="173.9219" y2="195.9219"/><polygon fill="#000000" points="117.3828,185.9219,121.3828,195.9219,125.3828,185.9219,121.3828,189.9219" style="stroke:#000000;stroke-width:1.0;"/><line style="stroke:#000000;stroke-width:1.0;" x1="285.833" x2="357.8125" y1="173.9219" y2="173.9219"/><line style="stroke:#000000;stroke-width:1.0;" x1="357.8125" x2="357.8125" y1="173.9219" y2="195.9219"/><polygon fill="#000000" points="353.8125,185.9219,357.8125,195.9219,361.8125,185.9219,357.8125,189.9219" style="stroke:#000000;stroke-width:1.0;"/><line style="stroke:#000000;stroke-width:1.0;" x1="121.3828" x2="121.3828" y1="343.8047" y2="348.8047"/><line style="stroke:#000000;stroke-width:1.0;" x1="121.3828" x2="239.5977" y1="348.8047" y2="348.8047"/><line style="stroke:#000000;stroke-width:1.0;" x1="239.5977" x2="239.5977" y1="348.8047" y2="363.8047"/><polygon fill="#000000" points="235.5977,353.8047,239.5977,363.8047,243.5977,353.8047,239.5977,357.8047" style="stroke:#000000;stroke-width:1.0;"/><line style="stroke:#000000;stroke-width:1.0;" x1="239.5977" x2="239.5977" y1="141.9219" y2="161.9219"/><polygon fill="#000000" points="235.5977,151.9219,239.5977,161.9219,243.5977,151.9219,239.5977,155.9219" style="stroke:#000000;stroke-width:1.0;"/><line style="stroke:#000000;stroke-width:1.0;" x1="239.5977" x2="239.5977" y1="399.7656" y2="419.7656"/><polygon fill="#000000" points="235.5977,409.7656,239.5977,419.7656,243.5977,409.7656,239.5977,413.7656" style="stroke:#000000;stroke-width:1.0;"/><line style="stroke:#000000;stroke-width:1.0;" x1="239.5977" x2="239.5977" y1="455.7266" y2="475.7266"/><polygon fill="#000000" points="235.5977,465.7266,239.5977,475.7266,243.5977,465.7266,239.5977,469.7266" style="stroke:#000000;stroke-width:1.0;"/><line style="stroke:#000000;stroke-width:1.0;" x1="239.5977" x2="239.5977" y1="511.6875" y2="531.6875"/><polygon fill="#000000" points="235.5977,521.6875,239.5977,531.6875,243.5977,521.6875,239.5977,525.6875" style="stroke:#000000;stroke-width:1.0;"/><line style="stroke:#000000;stroke-width:1.0;" x1="239.5977" x2="239.5977" y1="567.6484" y2="587.6484"/><polygon fill="#000000" points="235.5977,577.6484,239.5977,587.6484,243.5977,577.6484,239.5977,581.6484" style="stroke:#000000;stroke-width:1.0;"/><line style="stroke:#000000;stroke-width:1.0;" x1="239.5977" x2="239.5977" y1="623.6094" y2="643.6094"/><polygon fill="#000000" points="235.5977,633.6094,239.5977,643.6094,243.5977,633.6094,239.5977,637.6094" style="stroke:#000000;stroke-width:1.0;"/><line style="stroke:#000000;stroke-width:1.0;" x1="239.5977" x2="239.5977" y1="679.5703" y2="699.5703"/><polygon fill="#000000" points="235.5977,689.5703,239.5977,699.5703,243.5977,689.5703,239.5977,693.5703" style="stroke:#000000;stroke-width:1.0;"/><line style="stroke:#000000;stroke-width:1.0;" x1="239.5977" x2="239.5977" y1="735.5313" y2="755.5313"/><polygon fill="#000000" points="235.5977,745.5313,239.5977,755.5313,243.5977,745.5313,239.5977,749.5313" style="stroke:#000000;stroke-width:1.0;"/><line style="stroke:#000000;stroke-width:1.0;" x1="239.5977" x2="239.5977" y1="791.4922" y2="811.4922"/><polygon fill="#000000" points="235.5977,801.4922,239.5977,811.4922,243.5977,801.4922,239.5977,805.4922" style="stroke:#000000;stroke-width:1.0;"/><line style="stroke:#000000;stroke-width:1.0;" x1="239.5977" x2="239.5977" y1="847.4531" y2="867.4531"/><polygon fill="#000000" points="235.5977,857.4531,239.5977,867.4531,243.5977,857.4531,239.5977,861.4531" style="stroke:#000000;stroke-width:1.0;"/><!--SRC=[XP8nJyD038Nt-nMMM9812TX81rHQLOAX0gA269sSsvoQdYFxqahyUYufAQ58a6pliv_zdEZM-GO5Tr1WkTq8jzxEk6Q1YyLjznezLMY5bW_ERs2DjTA8J4NuyDLsrJyZk6HBzooMvC-Ay_7J-Vpw_iOO3IZ1c6ob940-a2Wyj-u37kOJaxrYxIm66YH8EYFoDfqOuzQG3Fg-AxnB8LJa8NadJGr0bWSM0YLLnnwSXpa6B51fqj4PbjKtZMEmbrz86_PA41WMmd4bRo5vvDYUjsKPo-DmYXU2PCdfFnqBT7Khb7RE6hWn4Rdra5VROkU20deza8pp7fLnt6pLz4JBBjEFBBzGdopgJwrMqFRGGaqOFrB1A1Rs3k6DYfoZUuYdp1OKokfeeB0MtfqySfOmWF4wUHTI8popZZSOEHzN4CBwChWTdLSErvfqFm8tdm00]--></g></svg>